<svg width="1036" height="1160" viewBox="0 0 1036 1160" fill="none" xmlns="http://www.w3.org/2000/svg">
<mask id="mask0_3_49" style="mask-type:luminance" maskUnits="userSpaceOnUse" x="0" y="0" width="1036" height="1160">
<path d="M0.356445 0.134766H1035.4V1159.61H0.356445V0.134766Z" fill="white"/>
</mask>
<g mask="url(#mask0_3_49)">
<path d="M450.038 65.002C454.663 64.3834 458.139 60.436 458.139 55.7521V8.08852C458.139 5.11323 458.669 0.134766 462.293 0.134766C463.972 0.134766 466.152 0.841768 468.42 2.16739L639.956 101.206C643.933 103.504 645.317 105.831 645.317 107.157C645.317 108.453 643.933 110.81 639.956 113.078L468.42 212.117C466.152 213.443 463.972 214.179 462.293 214.179C458.669 214.179 458.139 209.171 458.139 206.196V169.167C458.139 166.398 456.931 163.805 454.81 162.008C452.719 160.241 449.95 159.475 447.239 159.946C349.644 176.59 260.238 227.553 195.518 303.467C130.062 380.236 94.0045 478.008 94.0045 578.755C94.0045 716.738 161.435 846.679 274.378 926.305C284.6 933.493 291.375 944.215 293.496 956.529C295.647 968.813 292.848 981.215 285.66 991.408C276.911 1003.81 262.624 1011.23 247.424 1011.23C237.761 1011.23 228.452 1008.29 220.528 1002.69C82.7809 905.566 0.533203 747.11 0.533203 578.755C0.533203 320.023 193.78 99.1442 450.038 65.002ZM744.268 201.011C746.389 213.295 753.194 224.048 763.386 231.235C876.33 310.861 943.76 440.773 943.76 578.755C943.76 679.532 907.732 777.305 842.246 854.043C777.556 929.958 688.15 980.92 590.554 997.564C587.844 998.036 585.046 997.27 582.954 995.502C580.862 993.735 579.655 991.113 579.655 988.373V951.315C579.655 948.34 579.095 943.361 575.472 943.361C573.822 943.361 571.642 944.068 569.344 945.394L397.808 1044.43C393.861 1046.73 392.447 1049.06 392.447 1050.38C392.447 1051.68 393.861 1054.04 397.808 1056.3L569.344 1155.34C571.642 1156.67 573.822 1157.41 575.472 1157.41C576.886 1157.41 577.504 1156.88 577.946 1156.34C579.007 1154.99 579.625 1152.49 579.625 1149.42V1101.76C579.625 1097.1 583.101 1093.13 587.726 1092.51C843.984 1058.37 1037.23 837.488 1037.23 578.755C1037.23 410.43 954.983 251.945 817.236 154.85C809.312 149.253 800.032 146.307 790.37 146.307C775.17 146.307 760.853 153.701 752.133 166.103C744.916 176.325 742.147 188.698 744.268 201.011ZM528.22 584.146V853.513L761.501 718.83V449.463L528.22 584.146ZM373.741 560.197L417.074 585.207V525.347C417.074 525.259 417.104 525.171 417.104 525.053C417.104 524.847 417.104 524.64 417.133 524.434C417.162 524.257 417.192 524.051 417.221 523.874C417.251 523.639 417.28 523.433 417.339 523.226C417.369 523.02 417.428 522.843 417.487 522.667C417.545 522.49 417.604 522.313 417.663 522.136C417.752 521.93 417.84 521.695 417.928 521.488C418.017 521.312 418.105 521.135 418.194 520.958C418.252 520.87 418.282 520.781 418.311 520.693C418.37 520.634 418.429 520.546 418.488 520.487C418.576 520.31 418.694 520.133 418.812 519.956C418.959 519.78 419.077 519.603 419.225 519.426C419.372 519.279 419.49 519.132 419.608 518.984C419.725 518.867 419.873 518.719 419.99 518.601C420.167 518.454 420.344 518.307 420.521 518.16C420.668 518.042 420.815 517.924 420.963 517.806C421.139 517.688 421.316 517.57 421.493 517.453C421.581 517.394 421.64 517.335 421.728 517.276L659.664 379.912L616.36 354.901L373.741 494.976V560.197ZM285.602 433.29L364.432 478.803L597.683 344.12L518.882 298.636L285.602 433.29ZM518.882 567.974L752.163 433.29L678.34 390.693L445.06 525.347L518.882 567.974ZM509.544 584.146L435.721 541.52V601.379C435.721 604.708 433.954 607.801 431.067 609.451C429.623 610.305 428.003 610.718 426.383 610.718C424.792 610.718 423.172 610.305 421.728 609.451L359.748 573.688C356.861 572.009 355.094 568.916 355.094 565.587V494.976L276.293 449.463V718.83L509.544 853.513V584.146Z" fill="#1D4ED8"/>
</g>
</svg>
